<svg width="170" height="30" viewBox="0 0 170 30" fill="none" xmlns="http://www.w3.org/2000/svg">
<path d="M31.8497 8.19283V6.29022H43.5704V8.19283H39.3376V23.8853H36.0826V8.19283H31.8497Z" fill="#444444"/>
<path d="M54.6887 23.8853H49.8049C47.8519 23.8853 46.874 22.8005 46.874 20.628V9.55029C46.874 7.37782 47.8519 6.29294 49.8049 6.29294H54.6887C56.6417 6.29294 57.6195 7.37782 57.6195 9.55029V20.628C57.6195 22.8005 56.6417 23.8853 54.6887 23.8853ZM54.3618 20.628V9.55029C54.3618 8.46541 53.9288 7.92025 53.0598 7.92025H51.431C50.5621 7.92025 50.129 8.46269 50.129 9.55029V20.628C50.129 21.7129 50.5621 22.258 51.431 22.258H53.0598C53.9288 22.258 54.3618 21.7156 54.3618 20.628Z" fill="#444444"/>
<path d="M61.7401 23.8854V6.29028H64.3441L69.5521 17.6133V6.29028H72.807V23.8854H70.2031L64.9951 12.5624V23.8854H61.7401Z" fill="#444444"/>
<path d="M76.9348 23.8854V6.29028H86.3756V7.92031H80.1898V14.1106H86.0515V15.7407H80.1898V22.2581H86.3756V23.8881H76.9348V23.8854Z" fill="#444444"/>
<path d="M104.19 23.8854V6.29028H106.903L110.267 16.771L113.603 6.29028H116.316V23.8854H113.088V13.3501L110.267 22.2008L107.417 13.3501V23.8854H104.19Z" fill="#444444"/>
<path d="M129.123 6.29028H132.378V20.6253C132.378 22.7978 131.401 23.8827 129.448 23.8827H123.913C121.96 23.8827 120.982 22.7978 120.982 20.6253V6.29028H124.237V20.6253C124.237 21.7102 124.67 22.2554 125.539 22.2554H127.819C128.688 22.2554 129.121 21.7129 129.121 20.6253V6.29028H129.123Z" fill="#444444"/>
<path d="M139.433 15.7379C137.48 15.7379 136.502 14.6531 136.502 12.4806V9.54762C136.502 7.37515 137.48 6.29028 139.433 6.29028H146.597V7.92031H141.062C140.193 7.92031 139.76 8.46275 139.76 9.55035V12.4833C139.76 13.5682 140.193 14.1134 141.062 14.1134H143.993C145.946 14.1134 146.924 15.1982 146.924 17.3707V20.628C146.924 22.8005 145.946 23.8854 143.993 23.8854H136.829V22.2554H142.364C143.233 22.2554 143.666 21.7129 143.666 20.6253V17.368C143.666 16.2831 143.233 15.7379 142.364 15.7379H139.433Z" fill="#444444"/>
<path d="M150.77 7.92031V6.29028H156.631V7.92031H155.329V22.2554H156.631V23.8854H150.77V22.2554H152.072V7.92031H150.77Z" fill="#444444"/>
<path d="M163.41 23.8853C161.457 23.8853 160.479 22.8005 160.479 20.628V9.55029C160.479 7.37782 161.457 6.29294 163.41 6.29294H169.923V7.92298H165.039C164.17 7.92298 163.737 8.46542 163.737 9.55302V20.6307C163.737 21.7156 164.17 22.2608 165.039 22.2608H169.923V23.8908H163.41V23.8853Z" fill="#444444"/>
<path d="M11.3347 30H5.6676V18.1869H7.17932V0H9.82381V18.1869H11.3355V29.9992L11.3347 30Z" fill="#F2CE00"/>
<path d="M4.47456 26.8651H0V2.98508H3.28118V17.4623H4.47456V26.8651Z" fill="#F2CE00"/>
<path d="M19.0908 19.8509H16.1078V4.32816H17.7981V13.7382H19.0908V19.8501V19.8509Z" fill="#F2CE00"/>
<path d="M12.2299 24.6263H15.2129V8.806H13.0257V18.3971H12.2307V24.6263H12.2299Z" fill="#F2CE00"/>
<path d="M18.6428 28.0594H21.7745V11.0449H19.8458V21.3597H18.642V28.0594H18.6428Z" fill="#F2CE00"/>
</svg>
