<svg width="286" height="323" viewBox="0 0 286 323" fill="none" xmlns="http://www.w3.org/2000/svg">
<path d="M0 245.558V241.625H24.2227V245.558H15.4748V277.989H8.74787V245.558H0Z" fill="white"/>
<path d="M47.2014 277.989H37.1081C33.0719 277.989 31.051 275.747 31.051 271.257V248.363C31.051 243.873 33.0719 241.631 37.1081 241.631H47.2014C51.2375 241.631 53.2584 243.873 53.2584 248.363V271.257C53.2584 275.747 51.2375 277.989 47.2014 277.989ZM46.5259 271.257V248.363C46.5259 246.121 45.6308 244.994 43.8351 244.994H40.4688C38.673 244.994 37.778 246.115 37.778 248.363V271.257C37.778 273.499 38.673 274.626 40.4688 274.626H43.8351C45.6308 274.626 46.5259 273.505 46.5259 271.257Z" fill="white"/>
<path d="M61.7754 277.989V241.626H67.157L77.9201 265.026V241.626H84.6471V277.989H79.2655L68.5024 254.588V277.989H61.7754Z" fill="white"/>
<path d="M93.1755 277.989V241.626H112.687V244.994H99.9025V257.788H112.017V261.156H99.9025V274.626H112.687V277.994H93.1755V277.989Z" fill="white"/>
<path d="M149.502 277.989V241.626H155.108L162.061 263.286L168.956 241.626H174.563V277.989H167.892V256.216L162.061 274.507L156.172 256.216V277.989H149.502Z" fill="white"/>
<path d="M201.032 241.626H207.759V271.251C207.759 275.741 205.738 277.983 201.702 277.983H190.263C186.227 277.983 184.206 275.741 184.206 271.251V241.626H190.933V271.251C190.933 273.493 191.828 274.62 193.624 274.62H198.336C200.131 274.62 201.027 273.499 201.027 271.251V241.626H201.032Z" fill="white"/>
<path d="M222.339 261.151C218.303 261.151 216.282 258.909 216.282 254.419V248.357C216.282 243.868 218.303 241.626 222.339 241.626H237.144V244.994H225.705C223.909 244.994 223.014 246.115 223.014 248.363V254.425C223.014 256.667 223.909 257.793 225.705 257.793H231.762C235.798 257.793 237.819 260.035 237.819 264.525V271.257C237.819 275.747 235.798 277.989 231.762 277.989H216.957V274.62H228.396C230.192 274.62 231.087 273.499 231.087 271.251V264.519C231.087 262.277 230.192 261.151 228.396 261.151H222.339Z" fill="white"/>
<path d="M245.768 244.994V241.626H257.882V244.994H255.191V274.62H257.882V277.989H245.768V274.62H248.459V244.994H245.768Z" fill="white"/>
<path d="M271.893 277.989C267.857 277.989 265.836 275.747 265.836 271.257V248.363C265.836 243.873 267.857 241.631 271.893 241.631H285.353V245H275.26C273.464 245 272.569 246.121 272.569 248.369V271.263C272.569 273.505 273.464 274.631 275.26 274.631H285.353V278H271.893V277.989Z" fill="white"/>
<path d="M156.792 209.014H117.309V126.711H127.841V0H146.265V126.711H156.798V209.008L156.792 209.014Z" fill="#F2CE00"/>
<path d="M108.994 187.174H77.8193V20.7982H100.68V121.663H108.994V187.174Z" fill="#F2CE00"/>
<path d="M210.827 138.304H190.044V30.1553H201.821V95.7162H210.827V138.299V138.304Z" fill="#F2CE00"/>
<path d="M163.03 171.575H183.813V61.3528H168.574V128.176H163.035V171.575H163.03Z" fill="#F2CE00"/>
<path d="M207.709 195.494H229.528V76.9515H216.091V148.816H207.703V195.494H207.709Z" fill="#F2CE00"/>
<path d="M50.0493 306.618C50.0913 306.842 50.1053 307.038 50.1053 307.248C50.1053 307.64 50.0493 308.27 49.9933 308.774C48.9433 308.788 48.1733 308.816 47.2773 308.718C47.3053 309.11 47.3053 309.474 47.3473 309.782C47.3613 310.02 47.4453 310.09 47.5993 310.104C47.7673 310.132 47.9913 310.132 48.3973 310.132C48.6353 310.132 49.0133 310.146 49.8393 310.118C49.8113 310.65 49.7833 311.266 49.7693 311.868C48.0473 312.722 46.4933 314.43 46.4933 316.222C46.4933 317.314 47.0953 317.958 48.0473 317.958C48.7613 317.958 49.4893 317.636 50.4833 316.95C50.5533 317.16 50.6233 317.328 50.7213 317.496C50.8053 317.636 50.8613 317.636 51.0013 317.566C51.1973 317.482 51.5193 317.314 51.8413 317.076C51.9813 316.978 52.0373 316.908 51.9533 316.726C51.8553 316.502 51.7713 316.348 51.7013 316.096C52.7093 315.074 53.5353 313.968 54.3473 312.428C55.2853 312.666 56.0833 313.338 56.0833 314.458C56.0833 315.466 55.6353 316.068 54.9633 316.558C54.4453 316.922 53.3673 317.37 52.3593 317.58C52.8073 317.958 53.0873 318.252 53.1853 318.448C53.3393 318.756 53.4933 318.798 53.8013 318.714C56.0273 318.112 57.6933 316.796 57.6933 314.766C57.6933 313.016 56.6293 311.826 54.8233 311.35C54.8933 311.224 54.9353 311.14 55.0053 311.07C55.0613 311.014 55.0893 310.958 55.0893 310.902C55.0893 310.818 55.0053 310.706 54.8373 310.594C54.6413 310.454 54.0953 310.23 53.5913 310.076C53.5773 310.468 53.4373 310.874 53.3533 311.098C52.6673 311.112 51.7573 311.224 51.2113 311.406C51.2253 310.916 51.2533 310.58 51.3093 309.992C52.5833 309.88 53.4373 309.782 55.2853 309.404C55.4393 309.376 55.5793 309.306 55.5793 309.124C55.5793 308.816 55.5093 308.466 55.4393 308.172C55.4113 308.046 55.3693 307.99 55.2013 308.032C53.8433 308.34 52.8493 308.494 51.5613 308.62C51.6033 308.382 51.6313 308.172 51.6733 307.92C51.7013 307.766 51.7433 307.57 51.8693 307.416C51.9253 307.346 51.9393 307.29 51.9393 307.192C51.9393 307.08 51.8553 306.996 51.6873 306.94C51.3373 306.814 50.8613 306.716 50.0493 306.618ZM51.3093 314.71C51.1973 313.996 51.1553 313.338 51.1413 312.61C51.7853 312.4 52.4293 312.302 52.9333 312.288C52.5413 313.072 51.8833 314.052 51.3093 314.71ZM49.7693 313.24C49.7973 314.052 49.9093 314.808 50.0493 315.648C49.3353 316.208 48.8173 316.46 48.4253 316.46C48.1733 316.46 47.9633 316.264 47.9633 315.928C47.9633 315.018 48.6913 314.01 49.7693 313.24ZM67.2973 314.878C66.8493 314.808 66.4573 314.794 66.1913 314.794C64.6093 314.794 63.6013 315.62 63.6013 316.838C63.6013 318.042 64.6373 318.826 66.1773 318.826C67.7733 318.826 68.7813 318.182 68.7813 316.782C69.3553 317.118 69.8733 317.426 70.4893 317.958C70.5453 318.014 70.5873 318.042 70.6293 318.042C70.6713 318.042 70.7133 318.014 70.7553 317.944C70.9933 317.594 71.1893 317.244 71.3993 316.81C71.4693 316.67 71.4553 316.614 71.3153 316.516C70.4893 315.928 69.8033 315.62 68.7953 315.214C68.6833 314.262 68.6413 313.66 68.6413 312.834C68.6273 312.596 68.6413 312.428 68.6973 312.26C68.7533 312.092 68.7813 311.994 68.7813 311.966C68.7813 311.84 68.7113 311.77 68.5853 311.742C68.1093 311.602 67.7453 311.546 67.0593 311.476C67.1433 311.868 67.1573 312.092 67.1713 312.47C67.1853 313.128 67.2133 313.982 67.2973 314.878ZM67.3253 316.208C67.3393 316.292 67.3393 316.362 67.3393 316.488C67.3393 317.076 66.8773 317.482 66.1213 317.482C65.3233 317.482 64.9313 317.258 64.9313 316.81C64.9313 316.278 65.4773 315.998 66.1773 315.998C66.6113 315.998 66.9893 316.096 67.3253 316.208ZM65.0433 309.026C65.1693 308.606 65.2813 308.172 65.3793 307.836C65.4633 307.556 65.5193 307.43 65.6033 307.318C65.6873 307.234 65.7293 307.164 65.7293 307.052C65.7293 306.954 65.6453 306.87 65.5053 306.842C65.0713 306.716 64.4693 306.632 63.8673 306.548C63.8673 306.982 63.8673 307.192 63.7833 307.682C63.6853 308.186 63.5873 308.662 63.4193 309.25C62.7753 309.306 62.3553 309.32 61.8093 309.32C61.4033 309.32 61.0813 309.306 60.5073 309.264C60.5353 309.726 60.5773 310.188 60.6473 310.454C60.6753 310.636 60.7033 310.678 60.8433 310.678C61.1933 310.692 61.3053 310.692 61.6133 310.692C62.0473 310.692 62.4813 310.692 63.0133 310.664C62.3833 312.344 61.6413 313.814 60.5913 315.55C60.5353 315.62 60.5213 315.676 60.5213 315.718C60.5213 315.774 60.5493 315.816 60.6193 315.872C60.8573 316.096 61.2633 316.39 61.5853 316.586C61.6553 316.628 61.7113 316.656 61.7533 316.656C61.8093 316.656 61.8513 316.614 61.9073 316.516C62.9153 314.808 63.7413 312.876 64.6373 310.51C65.5053 310.384 66.1913 310.286 66.9473 310.132C67.0593 310.118 67.1153 310.09 67.1153 309.964C67.1013 309.6 67.0593 309.18 66.9893 308.83C66.9613 308.676 66.9053 308.676 66.7793 308.718C66.2333 308.844 65.5893 308.97 65.0433 309.026ZM68.1513 310.356C69.2153 310.706 70.2233 311.322 71.0493 311.882C71.1053 311.924 71.1333 311.938 71.1753 311.938C71.2173 311.938 71.2593 311.91 71.3013 311.84C71.4973 311.546 71.7493 311.112 71.8893 310.804C71.9313 310.734 71.9453 310.678 71.9453 310.636C71.9453 310.58 71.9033 310.538 71.8193 310.482C71.0073 309.95 69.9013 309.39 69.0753 309.166C68.9353 309.11 68.8653 309.124 68.7813 309.264C68.5993 309.516 68.3893 309.936 68.1513 310.356ZM79.2393 309.25C79.3373 308.9 79.4353 308.424 79.5753 307.92C79.6453 307.696 79.7573 307.556 79.8693 307.36C79.9393 307.262 79.9393 307.192 79.9393 307.136C79.9393 307.052 79.8973 306.954 79.7853 306.912C79.3373 306.73 78.7633 306.632 78.0213 306.52C78.0213 306.968 77.9933 307.388 77.9373 307.808C77.8393 308.382 77.7273 308.998 77.5873 309.558C76.7753 309.656 76.0193 309.698 75.3193 309.698C74.7453 309.698 74.5773 309.698 74.2833 309.656C74.3533 310.16 74.4233 310.636 74.4793 310.93C74.5073 311.112 74.5633 311.154 74.7733 311.154C75.4313 311.154 76.4113 311.084 77.2233 311C76.5373 313.338 75.8653 315.186 74.8013 317.636C74.7593 317.734 74.8013 317.846 74.9133 317.916C75.2073 318.084 75.8933 318.378 76.0333 318.434C76.1873 318.476 76.2713 318.49 76.3413 318.294C77.2373 315.97 77.9513 313.828 78.9033 310.72C79.7573 310.58 80.4713 310.426 81.3393 310.188C81.5213 310.146 81.5633 310.104 81.5493 309.922C81.5353 309.628 81.4933 309.222 81.4513 308.914C81.4373 308.802 81.3813 308.732 81.2273 308.774C80.5413 308.97 79.7853 309.152 79.2393 309.25ZM79.4913 315.676C79.5193 316.488 79.6733 317.146 80.1213 317.594C80.7513 318.252 81.7033 318.504 83.5373 318.504C84.0553 318.504 84.9653 318.42 85.4413 318.35C85.6653 318.336 85.6793 318.294 85.6653 318.126C85.6653 317.748 85.6093 317.272 85.5533 316.908C85.5393 316.796 85.4973 316.768 85.3853 316.782C84.8253 316.852 83.8173 316.978 83.0333 316.978C81.6893 316.978 81.0033 316.684 80.8913 315.662C80.8773 315.522 80.8213 315.466 80.6813 315.466C80.4993 315.466 79.9253 315.564 79.4913 315.676ZM80.5833 313.03C81.4933 312.848 82.5573 312.708 83.3973 312.708C83.9993 312.708 84.6433 312.778 85.1333 312.876C85.3293 312.918 85.3993 312.862 85.3993 312.624C85.4133 312.246 85.4133 311.854 85.3853 311.504C85.3853 311.336 85.3433 311.322 85.1473 311.294C84.6573 311.21 84.0553 311.154 83.5093 311.154C82.6973 311.154 81.6613 311.294 80.7793 311.476C80.5693 311.518 80.5273 311.56 80.5273 311.756C80.5273 312.036 80.5553 312.54 80.5833 313.03ZM95.0453 309.418C96.9213 309.418 98.1813 311 98.1813 312.666C98.1813 315.312 96.3193 316.292 93.9533 316.852C94.4853 317.174 94.7793 317.496 94.9333 317.734C95.1153 318.014 95.2413 318.07 95.5353 317.986C98.3773 317.132 99.8473 315.494 99.8473 312.89C99.8473 310.104 97.8733 308.032 94.5133 308.032C92.6233 308.032 91.1393 308.648 89.9633 309.824C88.9553 310.832 88.3813 312.12 88.3813 313.464C88.3813 315.746 89.6273 317.062 90.8593 317.062C91.9093 317.062 92.6373 316.502 93.2393 315.452C94.0793 313.982 94.6673 311.798 94.9893 309.418H95.0453ZM93.3653 309.502C93.1273 311.364 92.4973 313.38 91.8813 314.514C91.5033 315.186 91.1953 315.368 90.8313 315.368C90.3973 315.368 89.8793 314.654 89.8793 313.366C89.8793 312.47 90.2993 311.532 90.9713 310.776C91.6013 310.09 92.3853 309.698 93.3653 309.502ZM110.137 305.974V318.196H110.977V306.744H114.533V305.974H110.137ZM115.807 310.384C115.807 310.524 115.821 310.538 115.947 310.538C116.017 310.538 116.325 310.524 117.123 310.51C116.759 311.994 116.325 313.352 115.835 314.528C115.779 314.64 115.751 314.696 115.751 314.738C115.751 314.808 115.821 314.822 115.975 314.892L116.689 315.214C116.913 315.312 116.941 315.298 117.025 315.116L117.207 314.696C117.543 314.892 117.907 315.116 118.257 315.354C117.613 316.306 116.745 317.076 115.639 317.72C115.877 317.916 116.101 318.168 116.297 318.476C116.437 318.686 116.493 318.784 116.591 318.784C116.661 318.784 116.759 318.728 116.927 318.616C117.935 317.944 118.747 317.132 119.391 316.18C119.825 316.53 120.245 316.908 120.637 317.314C120.693 317.37 120.721 317.384 120.749 317.384C120.791 317.384 120.833 317.356 120.889 317.272L121.449 316.362C121.547 316.208 121.561 316.152 121.463 316.082C121.015 315.676 120.539 315.298 120.063 314.962C120.665 313.66 121.015 312.176 121.155 310.454C121.169 310.188 121.197 309.824 121.239 309.418C121.253 309.264 121.211 309.236 121.071 309.236C120.987 309.236 120.609 309.264 119.503 309.264H118.803C118.901 308.76 118.985 308.228 119.083 307.682C119.139 307.332 119.195 307.164 119.293 307.024C119.377 306.898 119.419 306.814 119.419 306.73C119.419 306.646 119.335 306.604 119.195 306.562C118.747 306.45 118.257 306.394 117.781 306.366C117.781 306.842 117.739 307.332 117.683 307.682C117.599 308.228 117.501 308.746 117.389 309.264C116.381 309.264 116.031 309.236 115.947 309.236C115.821 309.236 115.807 309.25 115.807 309.39V310.384ZM119.783 310.51C119.671 311.952 119.377 313.156 118.915 314.178C118.495 313.912 118.089 313.674 117.683 313.45C118.005 312.54 118.285 311.56 118.523 310.51H119.783ZM124.179 313.394V316.81C124.179 317.244 123.997 317.454 123.619 317.454C123.045 317.454 122.625 317.426 122.079 317.37C122.261 317.608 122.429 318 122.541 318.434C122.625 318.868 122.625 318.868 123.059 318.854C124.389 318.854 124.837 318.77 125.173 318.49C125.509 318.21 125.663 317.846 125.663 317.02C125.663 316.516 125.635 315.942 125.635 314.92V313.394H126.643C127.945 313.394 128.379 313.422 128.463 313.422C128.603 313.422 128.617 313.408 128.617 313.282V312.176C128.617 312.036 128.603 312.022 128.463 312.022C128.379 312.022 127.945 312.05 126.643 312.05H125.635V311.798C125.635 311.378 125.635 311.154 125.663 310.986C126.447 310.216 127.063 309.474 127.567 308.816C127.847 308.424 127.959 308.312 128.085 308.228C128.183 308.172 128.225 308.088 128.225 307.99C128.225 307.864 128.141 307.724 127.777 307.374C127.441 307.052 127.301 307.01 127.189 307.01C127.119 307.01 127.063 307.038 127.007 307.066C126.965 307.094 126.881 307.108 126.755 307.108H123.591C122.373 307.108 121.967 307.08 121.883 307.08C121.743 307.08 121.729 307.094 121.729 307.248V308.312C121.729 308.466 121.743 308.48 121.883 308.48C121.967 308.48 122.373 308.452 123.591 308.452H126.139C125.677 309.11 125.229 309.614 124.585 310.258L124.067 310.23C124.165 310.874 124.179 311.364 124.179 312.05H123.241C121.953 312.05 121.505 312.022 121.435 312.022C121.281 312.022 121.267 312.036 121.267 312.176V313.282C121.267 313.408 121.281 313.422 121.435 313.422C121.505 313.422 121.953 313.394 123.241 313.394H124.179ZM134.987 308.704C133.993 308.83 132.873 308.942 131.501 308.928C131.585 309.376 131.683 309.894 131.725 310.048C131.753 310.188 131.837 310.244 132.005 310.244C133.083 310.23 134.119 310.104 135.407 309.908C135.589 310.3 135.799 310.776 135.939 311.07C134.693 311.28 133.573 311.392 132.173 311.42C132.215 311.812 132.341 312.288 132.425 312.568C132.467 312.708 132.523 312.764 132.677 312.764C133.699 312.736 135.071 312.568 136.513 312.344C136.891 312.946 137.353 313.618 137.675 313.996C137.115 313.758 136.289 313.646 135.267 313.646C133.083 313.646 131.795 314.584 131.795 316.082C131.795 317.804 133.503 318.714 136.723 318.714C137.073 318.714 137.409 318.7 137.731 318.672C137.927 318.658 137.983 318.602 138.025 318.462C138.151 318.084 138.249 317.538 138.305 317.188C138.319 317.076 138.277 317.006 138.137 317.006C137.633 317.034 137.115 317.09 136.597 317.09C134.455 317.09 133.265 316.796 133.265 315.886C133.265 315.228 134.035 314.822 135.351 314.822C136.345 314.822 137.269 314.962 137.983 315.27C138.305 315.41 138.585 315.536 138.809 315.718C138.893 315.774 138.949 315.802 139.005 315.802C139.089 315.802 139.145 315.76 139.229 315.662C139.453 315.396 139.649 315.116 139.803 314.794C139.873 314.64 139.873 314.584 139.733 314.458C139.047 313.828 138.501 313.044 137.899 312.036C138.683 311.868 139.565 311.616 140.265 311.35C140.405 311.294 140.405 311.224 140.377 311.098C140.307 310.762 140.251 310.496 140.125 310.174C140.083 310.048 140.013 310.02 139.873 310.09C139.201 310.342 138.459 310.58 137.325 310.818C137.143 310.426 136.961 309.992 136.835 309.642C137.787 309.432 138.641 309.222 139.579 308.928C139.677 308.9 139.775 308.816 139.747 308.676C139.691 308.396 139.593 308.004 139.509 307.738C139.467 307.626 139.397 307.612 139.271 307.668C138.277 307.99 137.507 308.2 136.415 308.41C136.331 308.172 136.289 308.046 136.191 307.682C136.163 307.528 136.135 307.388 136.135 307.262C136.135 307.178 136.163 307.08 136.163 306.996C136.163 306.856 136.051 306.744 135.855 306.744C135.295 306.744 134.721 306.8 134.161 306.898C134.399 307.206 134.525 307.486 134.651 307.794C134.791 308.144 134.875 308.382 134.987 308.704ZM148.049 319.386V307.164H147.209V318.616H143.653V319.386H148.049ZM165.605 313.73C166.795 313.24 167.705 312.932 168.615 312.61C168.895 312.512 169.175 312.442 169.469 312.4C169.609 312.372 169.679 312.316 169.679 312.204C169.679 312.12 169.651 312.022 169.567 311.896C169.413 311.644 169.049 311.154 168.587 310.664C168.237 311.028 167.789 311.28 167.523 311.42C166.809 311.784 166.011 312.148 165.465 312.4C165.325 311.308 164.681 310.888 163.757 310.888C163.379 310.888 162.805 311.028 162.357 311.322L162.343 311.294C162.763 310.776 163.071 310.258 163.393 309.74C164.415 309.628 165.619 309.474 166.669 309.32C166.865 309.292 166.921 309.236 166.907 309.096C166.893 308.69 166.837 308.368 166.767 308.088C166.739 307.962 166.697 307.92 166.543 307.948C165.703 308.144 164.849 308.284 163.995 308.382C164.163 308.004 164.233 307.822 164.317 307.626C164.387 307.486 164.471 307.36 164.555 307.29C164.625 307.234 164.653 307.15 164.653 307.08C164.653 306.982 164.597 306.884 164.485 306.842C164.121 306.702 163.505 306.548 162.889 306.45C162.889 306.828 162.847 307.066 162.791 307.304C162.651 307.794 162.525 308.13 162.371 308.508C161.307 308.564 160.215 308.578 159.151 308.522C159.193 308.942 159.249 309.46 159.291 309.684C159.319 309.838 159.361 309.908 159.487 309.908C160.313 309.908 161.069 309.894 161.727 309.866C160.915 311.266 159.879 312.372 158.801 313.338C158.731 313.394 158.703 313.436 158.703 313.492C158.703 313.52 158.717 313.562 158.759 313.618C158.941 313.912 159.361 314.346 159.557 314.542C159.613 314.598 159.669 314.64 159.711 314.64C159.767 314.64 159.809 314.598 159.879 314.514C160.327 313.982 160.677 313.576 161.279 312.988C161.923 312.428 162.553 312.008 163.211 311.98C163.841 311.952 164.009 312.232 164.051 312.946C161.937 314.038 161.097 315.018 161.097 316.362C161.097 317.986 162.315 318.672 164.611 318.672C165.969 318.672 166.879 318.644 168.083 318.49C168.195 318.49 168.251 318.392 168.237 318.224C168.237 317.888 168.181 317.398 168.111 317.076C168.097 316.95 168.041 316.908 167.915 316.922C166.837 317.076 165.717 317.202 164.429 317.202C162.959 317.202 162.483 316.824 162.483 316.236C162.483 315.564 162.931 315.018 164.177 314.374C164.163 314.878 164.163 315.578 164.163 316.082C164.163 316.222 164.219 316.306 164.345 316.306C164.737 316.306 165.157 316.264 165.339 316.236C165.521 316.208 165.605 316.138 165.605 315.984V313.73ZM180.123 314.724H180.375C181.719 314.724 182.195 314.752 182.293 314.752C182.433 314.752 182.447 314.738 182.447 314.598C182.447 314.514 182.419 313.982 182.419 312.89V308.704C182.419 307.584 182.447 307.066 182.447 306.968C182.447 306.828 182.433 306.814 182.293 306.814C182.195 306.814 181.719 306.842 180.375 306.842H175.867C174.509 306.842 174.033 306.814 173.949 306.814C173.795 306.814 173.781 306.828 173.781 306.968C173.781 307.066 173.809 307.584 173.809 308.704V312.89C173.809 313.982 173.781 314.5 173.781 314.598C173.781 314.738 173.795 314.752 173.949 314.752C174.033 314.752 174.481 314.724 175.839 314.724H175.867C175.587 316.474 174.285 317.51 171.807 317.818C172.073 318.056 172.311 318.378 172.493 318.728C172.633 319.008 172.675 319.078 172.815 319.078C172.885 319.078 172.969 319.064 173.109 319.036C175.531 318.532 177.001 317.09 177.407 314.724H178.667V317.622C178.667 318.252 178.919 318.476 179.241 318.616C179.647 318.77 180.305 318.812 181.355 318.812C182.433 318.812 183.301 318.7 183.693 318.392C184.085 318.112 184.267 317.748 184.351 316.768C184.393 316.418 184.393 316.418 184.043 316.292C183.679 316.166 183.301 315.984 183.021 315.802C183.007 316.74 182.895 317.118 182.671 317.286C182.503 317.412 181.971 317.468 181.467 317.468C180.921 317.468 180.557 317.454 180.375 317.398C180.193 317.356 180.123 317.258 180.123 316.936V314.724ZM180.963 313.52H175.251V312.484H180.963V313.52ZM180.963 308.116V309.138H175.251V308.116H180.963ZM175.251 311.308V310.314H180.963V311.308H175.251ZM185.975 310.678C186.269 311.28 186.619 311.826 186.871 312.134C187.025 312.344 187.137 312.428 187.277 312.428C187.347 312.428 187.459 312.386 187.655 312.218C187.823 312.092 188.173 311.938 188.621 311.714C190.749 310.776 192.415 310.272 193.675 310.272C195.229 310.272 196.083 311.084 196.083 312.4C196.083 313.688 195.341 314.584 194.151 315.186C193.199 315.648 192.205 315.914 190.357 316.222C190.819 316.516 191.169 316.936 191.337 317.328C191.435 317.594 191.547 317.608 191.827 317.552C193.115 317.272 194.207 317.048 195.383 316.39C197.049 315.494 197.847 314.332 197.847 312.498C197.847 310.3 196.237 308.788 193.731 308.788C192.597 308.788 190.847 309.222 188.691 309.95C187.109 310.482 186.591 310.608 185.975 310.678ZM208.319 312.54C208.333 313.996 208.193 314.948 207.885 315.662C207.465 316.642 206.835 317.286 205.519 317.986C205.995 318.21 206.359 318.448 206.611 318.672C206.723 318.798 206.779 318.798 206.891 318.798C206.989 318.798 207.087 318.77 207.241 318.672C208.109 318.168 208.809 317.426 209.243 316.502C209.649 315.676 209.873 314.556 209.859 313.254L209.845 311.098C210.489 311.028 211.105 310.944 211.777 310.818C211.903 310.804 211.973 310.748 211.959 310.566C211.931 310.202 211.903 309.866 211.847 309.516C211.833 309.376 211.763 309.348 211.595 309.39C211.007 309.516 210.405 309.614 209.803 309.698V308.144C209.803 307.864 209.831 307.64 209.873 307.556C209.929 307.458 209.971 307.374 209.971 307.276C209.971 307.164 209.901 307.094 209.747 307.052C209.425 306.954 208.767 306.884 207.941 306.856C208.081 307.234 208.123 307.514 208.179 308.004C208.235 308.536 208.235 309.166 208.263 309.866C207.759 309.908 207.101 309.922 206.709 309.922C206.191 309.922 205.491 309.908 204.973 309.852C205.043 310.468 205.071 310.846 205.127 311.126C205.141 311.28 205.253 311.35 205.449 311.35C205.967 311.364 206.331 311.364 206.625 311.35C207.031 311.35 207.563 311.322 208.305 311.266L208.319 312.54ZM203.461 317.272C203.461 317.174 203.475 317.02 203.503 316.908C203.643 316.418 203.755 316.04 204.133 315.2C204.273 314.92 204.301 314.836 204.301 314.738C204.301 314.654 204.259 314.57 204.175 314.472C204.035 314.248 203.909 314.066 203.713 313.534C203.377 314.318 203.125 314.794 202.775 315.536C202.663 315.018 202.635 314.22 202.635 313.324C202.635 312.092 202.901 310.636 203.167 309.124C203.265 308.648 203.363 308.27 203.433 308.088C203.517 307.934 203.517 307.864 203.517 307.808C203.517 307.71 203.433 307.612 203.209 307.5C202.845 307.318 202.383 307.164 201.739 307.01C201.739 307.822 201.669 308.452 201.585 309.096C201.291 311.154 201.165 312.442 201.165 313.576C201.165 315.032 201.543 317.02 201.991 317.916C202.075 318.084 202.145 318.126 202.313 318.098C202.607 318.056 202.859 317.986 203.279 317.804C203.419 317.748 203.461 317.706 203.461 317.608V317.272ZM219.791 310.048C219.791 309.32 219.791 308.704 219.819 308.284C219.847 307.934 219.875 307.724 219.987 307.528C220.029 307.458 220.057 307.388 220.057 307.318C220.057 307.206 219.987 307.122 219.833 307.08C219.245 306.954 218.643 306.87 218.041 306.828C218.181 307.22 218.223 307.64 218.237 308.102C218.251 308.816 218.265 309.53 218.279 310.034C218.307 311.364 218.349 312.694 218.517 314.528C218.209 314.486 217.789 314.486 217.341 314.486C215.605 314.486 214.275 315.368 214.275 316.628C214.275 317.916 215.535 318.686 217.257 318.686C219.133 318.686 220.029 317.79 220.085 316.586C220.099 316.474 220.099 316.348 220.099 316.264C221.303 316.754 222.171 317.258 223.207 318.028C223.319 318.112 223.361 318.07 223.445 317.986C223.697 317.678 223.977 317.244 224.187 316.81C224.243 316.698 224.229 316.628 224.131 316.572C222.815 315.774 221.527 315.186 220.071 314.766C219.931 313.436 219.861 312.666 219.833 311.532C221.009 311.42 222.199 311.224 223.375 310.902C223.459 310.874 223.515 310.846 223.487 310.692C223.417 310.314 223.263 309.838 223.151 309.502C223.123 309.418 223.067 309.39 222.983 309.418C222.031 309.74 220.953 309.95 219.791 310.048ZM218.559 316.082C218.601 316.67 218.139 317.286 217.089 317.286C216.207 317.286 215.647 317.048 215.647 316.572C215.647 316.068 216.277 315.746 217.257 315.746C217.649 315.746 218.041 315.788 218.545 315.886L218.559 316.082ZM231.705 306.408C231.537 306.828 231.383 307.206 231.285 307.724C231.243 307.906 231.313 307.976 231.383 308.004C232.825 308.564 233.917 308.83 235.443 309.082C235.555 309.096 235.597 309.026 235.639 308.886C235.737 308.62 235.891 307.948 235.947 307.654C235.975 307.542 235.919 307.43 235.765 307.402C234.323 307.192 233.007 306.926 231.705 306.408ZM228.989 311.028C229.213 311.588 229.507 312.204 229.703 312.498C229.787 312.624 229.913 312.806 230.095 312.806C230.207 312.806 230.291 312.75 230.403 312.666C230.571 312.54 230.767 312.4 231.593 311.994C232.391 311.602 233.007 311.392 233.791 311.392C234.603 311.392 235.093 311.994 235.093 313.156C235.093 314.29 234.729 315.06 234.323 315.634C233.735 316.46 232.783 317.244 231.243 317.972C231.719 318.154 232.097 318.42 232.405 318.714C232.531 318.84 232.615 318.896 232.741 318.896C232.811 318.896 232.881 318.868 232.979 318.826C234.085 318.238 235.023 317.496 235.681 316.6C236.325 315.746 236.815 314.626 236.815 313.254C236.815 311.196 235.737 309.922 233.861 309.922C232.797 309.922 231.831 310.23 230.655 310.622C229.899 310.86 229.563 310.972 228.989 311.028Z" fill="#DDDDDD"/>
<path d="M4.67627 313H36.6763" stroke="white"/>
<path d="M248.676 313H280.676" stroke="white"/>
</svg>
